<svg width="1600" height="2000" viewBox="0 0 1600 2000" fill="none" xmlns="http://www.w3.org/2000/svg" role="img" aria-labelledby="title desc">
  <title id="title">eightVo monogram</title>
  <desc id="desc">A golden figure-eight set on a black, tiled backdrop.</desc>
  <rect width="1600" height="2000" fill="#000"/>
  <g fill="#232528" stroke="#1a1c1f" stroke-width="6">
    <rect x="24" y="24" width="512" height="476" rx="30"/>
    <rect x="544" y="24" width="512" height="476" rx="30"/>
    <rect x="1064" y="24" width="512" height="476" rx="30"/>
    <rect x="24" y="524" width="512" height="476" rx="30"/>
    <rect x="544" y="524" width="512" height="476" rx="30"/>
    <rect x="1064" y="524" width="512" height="476" rx="30"/>
    <rect x="24" y="1024" width="512" height="476" rx="30"/>
    <rect x="544" y="1024" width="512" height="476" rx="30"/>
    <rect x="1064" y="1024" width="512" height="476" rx="30"/>
    <rect x="24" y="1524" width="512" height="452" rx="30"/>
    <rect x="544" y="1524" width="512" height="452" rx="30"/>
    <rect x="1064" y="1524" width="512" height="452" rx="30"/>
  </g>
  <g filter="url(#shadow)" stroke="#f5c800" stroke-width="70" stroke-linecap="round" stroke-linejoin="round">
    <path d="M800 980c170 0 308-138 308-308S970 364 800 364 492 502 492 672s138 308 308 308Z" fill="none"/>
    <path d="M800 1636c170 0 308-138 308-308s-138-308-308-308-308 138-308 308 138 308 308 308Z" fill="none"/>
    <path d="M720 820v360M880 820v360" fill="none"/>
  </g>
  <defs>
    <filter id="shadow" x="420" y="290" width="760" height="1420" color-interpolation-filters="sRGB">
      <feDropShadow dx="0" dy="28" stdDeviation="26" flood-color="#f5c800" flood-opacity="0.34"/>
    </filter>
  </defs>
</svg>
